<?xml version="1.0" encoding="UTF-8" standalone="no"?>
<!-- Generator: Adobe Illustrator 18.0.0, SVG Export Plug-In . SVG Version: 6.00 Build 0)  -->

<svg
   xmlns:dc="http://purl.org/dc/elements/1.1/"
   xmlns:cc="http://creativecommons.org/ns#"
   xmlns:rdf="http://www.w3.org/1999/02/22-rdf-syntax-ns#"
   xmlns:svg="http://www.w3.org/2000/svg"
   xmlns="http://www.w3.org/2000/svg"
   xmlns:sodipodi="http://sodipodi.sourceforge.net/DTD/sodipodi-0.dtd"
   xmlns:inkscape="http://www.inkscape.org/namespaces/inkscape"
   version="1.1"
   id="Vrstva_1"
   x="0px"
   y="0px"
   viewBox="0 57.2 765.35 234.516"
   style="enable-background:new 0 57.2 765.35 234.516;"
   xml:space="preserve"
   sodipodi:docname="Prowebin_logo-whi.svg"
   inkscape:version="0.92.3 (2405546, 2018-03-11)"><metadata
   id="metadata128"><rdf:RDF><cc:Work
       rdf:about=""><dc:format>image/svg+xml</dc:format><dc:type
         rdf:resource="http://purl.org/dc/dcmitype/StillImage" /><dc:title>Positive Color</dc:title></cc:Work></rdf:RDF></metadata><defs
   id="defs126" /><sodipodi:namedview
   pagecolor="#ffffff"
   bordercolor="#666666"
   borderopacity="1"
   objecttolerance="10"
   gridtolerance="10"
   guidetolerance="10"
   inkscape:pageopacity="0"
   inkscape:pageshadow="2"
   inkscape:window-width="1299"
   inkscape:window-height="713"
   id="namedview124"
   showgrid="false"
   inkscape:zoom="1.4738355"
   inkscape:cx="382.67499"
   inkscape:cy="117.258"
   inkscape:window-x="67"
   inkscape:window-y="27"
   inkscape:window-maximized="1"
   inkscape:current-layer="Vrstva_1" />
<title
   id="title97">Positive Color</title>
<path
   style="fill:#ffffff"
   d="m 75.524,135.037 c -37.144,-0.538 -67.98,29.466 -68.413,66.611 -0.099,8.54 1.392,22.14601 4.191,29.68801 0,0 26.079,-52.26101 28.236,-54.72201 l 0.313,-0.416 c 8.05,-10.617 20.858,-17.426 35.252,-17.241 23.26,0.301 42.363,19.19 42.91,42.447 0.576,24.503 -19.114,44.546 -43.485,44.546 -7.862,0 -15.231,-2.089 -21.592,-5.74 l 14.601,-25.464 c 2.582,1.464 5.665,2.149 8.933,1.713 6.39,-0.852 11.466,-6.064 12.162,-12.474 0.928,-8.548 -5.744,-15.779 -14.105,-15.779 -5.269,0 -9.865,2.874 -12.312,7.139 l -20.49,35.654 c -0.024,-0.027 -0.048,-0.053 -0.071,-0.081 l -12.342,21.545 c 0.024,0.021 0.047,0.041 0.07,0.061 l -7.242,12.63 c -2.579,-1.453 -5.654,-2.127 -8.912,-1.688 -6.381,0.86 -11.446,6.068 -12.142,12.469 -0.929,8.55 5.742,15.781 14.105,15.781 4.846,0 9.122,-2.431 11.682,-6.139 l 0.389,-0.592 c 0.166,-0.268 0.323,-0.543 0.472,-0.824 L 41.032,260.97 c 10.513,6.032 22.803,9.316 35.895,8.861 35.071,-1.219 64.672,-31.61 65.019,-66.699 0.367,-37.214 -29.419,-67.558 -66.422,-68.095"
   id="path99"
   inkscape:connector-curvature="0"
   sodipodi:nodetypes="cccccccsccccsccccccccsccccccc" />
<g
   id="g117">
	<path
   style="fill:#ffffff"
   d="M183.766,244.715v-62.683h29.321c13.627,0,21.051,9.21,21.051,20.205   c0,10.901-7.518,20.205-21.051,20.205H197.11v22.273H183.766z M220.511,202.237c0-5.263-3.947-8.458-9.21-8.458H197.11v16.916   h14.191C216.564,210.695,220.511,207.406,220.511,202.237z"
   id="path101" />
	<path
   style="fill:#ffffff"
   d="M287.247,244.715l-12.311-22.273h-9.774v22.273h-13.345v-62.683h29.321   c13.063,0,21.051,8.552,21.051,20.205c0,11.089-6.954,17.01-13.721,18.607l14.097,23.87H287.247z M288.563,202.237   c0-5.263-4.041-8.458-9.398-8.458h-14.003v16.916h14.003C284.522,210.695,288.563,207.5,288.563,202.237z"
   id="path103" />
	<path
   style="fill:#ffffff"
   d="M318.649,213.42c0-18.889,13.815-32.422,32.704-32.422c18.983,0,32.798,13.533,32.798,32.422   s-13.815,32.422-32.798,32.422C332.463,245.842,318.649,232.31,318.649,213.42z M370.43,213.42   c0-11.747-7.518-20.581-19.077-20.581c-11.559,0-18.983,8.834-18.983,20.581c0,11.653,7.424,20.581,18.983,20.581   C362.912,234.001,370.43,225.074,370.43,213.42z"
   id="path105" />
	<path
   style="fill:#ffffff"
   d="M449.008,244.715l-10.995-43.041l-10.901,43.041h-14.191l-17.95-62.683h14.942l10.995,45.297   l11.935-45.297h10.431l11.841,45.297l10.901-45.297h15.036l-17.856,62.683H449.008z"
   id="path107" />
	<path
   style="fill:#ffffff"
   d="M496.765,244.715v-62.683h44.357v11.747H510.11v13.251h30.354v11.747H510.11v14.191h31.012v11.747   H496.765z"
   id="path109" />
	<path
   style="fill:#ffffff"
   d="M560.962,244.715v-62.683h32.986c11.935,0,18.044,7.612,18.044,15.976   c0,7.894-4.887,13.157-10.807,14.378c6.672,1.034,12.029,7.518,12.029,15.412c0,9.398-6.296,16.916-18.232,16.916H560.962z    M598.365,200.358c0-3.947-2.819-6.86-7.33-6.86h-16.728v13.627h16.728C595.546,207.124,598.365,204.305,598.365,200.358z    M599.587,225.919c0-3.947-2.819-7.33-8.082-7.33h-17.198v14.566h17.198C596.58,233.156,599.587,230.43,599.587,225.919z"
   id="path111" />
	<path
   style="fill:#ffffff"
   d="M632.68,244.715v-62.683h13.345v62.683H632.68z"
   id="path113" />
	<path
   style="fill:#ffffff"
   d="M711.063,244.715l-29.885-40.88v40.88h-13.345v-62.683h13.721l29.041,39.376v-39.376h13.34v62.683   H711.063z"
   id="path115" />
</g>
<g
   id="g121">
	<path
   style="fill:#ffffff"
   d="M751.6,202.088c-5.534,0-10.027-4.493-10.027-10.029c0-5.58,4.493-10.027,10.027-10.027   c5.582,0,10.029,4.447,10.029,10.027C761.629,197.595,757.182,202.088,751.6,202.088z M751.6,183.546   c-4.729,0-8.514,3.784-8.514,8.514c0,4.683,3.784,8.515,8.514,8.515c4.683,0,8.515-3.832,8.515-8.515   C760.115,187.33,756.283,183.546,751.6,183.546z M754.262,197.113l-2.621-3.992h-1.746v3.992h-1.414v-10.106h4.117   c1.704,0,3.285,1.206,3.285,3.077c0,2.246-1.996,2.994-2.579,2.994l2.704,4.034H754.262z M752.599,188.255h-2.704v3.575h2.704   c0.873,0,1.829-0.706,1.829-1.746C754.428,188.961,753.472,188.255,752.599,188.255z"
   id="path119" />
</g>
</svg>